<svg width="52" height="43" viewBox="0 0 52 43" fill="none" xmlns="http://www.w3.org/2000/svg">
<path d="M46.41 10.6221C46.41 11.0684 46.41 11.5409 46.41 11.9871C46.4344 15.9514 45.6716 19.881 44.1659 23.5481C42.6599 27.2152 40.4413 30.5469 37.6381 33.3501C34.8348 36.1534 31.5032 38.372 27.836 39.878C24.1689 41.3837 20.2392 42.1465 16.275 42.1221C10.5056 42.1389 4.85418 40.4891 0 37.3708C0.86625 37.3708 1.68 37.3708 2.625 37.3708C7.38533 37.3708 12.0076 35.7717 15.75 32.8296C13.5317 32.8096 11.3767 32.0878 9.59411 30.7674C7.81153 29.447 6.49294 27.5959 5.8275 25.4796C6.49595 25.5862 7.17187 25.6389 7.84875 25.6371C8.78627 25.6303 9.7199 25.5158 10.6312 25.2958C8.25959 24.8118 6.12804 23.5232 4.59732 21.6479C3.0666 19.7728 2.23078 17.4264 2.23125 15.0059C3.69886 15.8154 5.33418 16.2737 7.00875 16.3446C5.53119 15.3672 4.32059 14.0369 3.48642 12.474C2.65227 10.9111 2.22088 9.16493 2.23125 7.39337C2.23453 5.54926 2.72344 3.73853 3.64875 2.14337C6.30454 5.41845 9.61863 8.09918 13.3764 10.012C17.1341 11.9248 21.2518 13.0269 25.4625 13.2471C25.2958 12.4527 25.2079 11.6438 25.2 10.8321C25.1315 8.67143 25.7318 6.54227 26.9186 4.73543C28.1056 2.92856 29.8211 1.53209 31.8313 0.736633C33.8413 -0.0587948 36.0481 -0.214404 38.1499 0.291066C40.2518 0.796536 42.1462 1.93846 43.575 3.56087C45.9506 3.08367 48.2249 2.19535 50.295 0.93587C49.5044 3.38542 47.8417 5.45924 45.6225 6.76337C47.7322 6.53539 49.7947 5.98655 51.7388 5.13587C50.2992 7.23839 48.526 9.09156 46.4888 10.6221H46.41Z" fill="white"/>
</svg>
