<svg width="58" height="58" viewBox="0 0 58 58" fill="none" xmlns="http://www.w3.org/2000/svg">
<path fill-rule="evenodd" clip-rule="evenodd" d="M28.875 44.625C37.5735 44.625 44.625 37.5735 44.625 28.875C44.625 20.1765 37.5735 13.125 28.875 13.125C20.1765 13.125 13.125 20.1765 13.125 28.875C13.125 37.5735 20.1765 44.625 28.875 44.625ZM28.875 39.375C34.6739 39.375 39.375 34.6739 39.375 28.875C39.375 23.076 34.6739 18.375 28.875 18.375C23.076 18.375 18.375 23.076 18.375 28.875C18.375 34.6739 23.076 39.375 28.875 39.375Z" fill="#FFF5F5"/>
<path d="M44.625 10.5C43.1752 10.5 42 11.6753 42 13.125C42 14.5747 43.1752 15.75 44.625 15.75C46.0748 15.75 47.25 14.5747 47.25 13.125C47.25 11.6753 46.0748 10.5 44.625 10.5Z" fill="white"/>
<path fill-rule="evenodd" clip-rule="evenodd" d="M1.71665 8.59966C0 11.9688 0 16.3792 0 25.2V32.55C0 41.3708 0 45.7813 1.71665 49.1502C3.22665 52.1139 5.63609 54.5234 8.59966 56.0333C11.9688 57.75 16.3792 57.75 25.2 57.75H32.55C41.3708 57.75 45.7813 57.75 49.1502 56.0333C52.1139 54.5234 54.5234 52.1139 56.0333 49.1502C57.75 45.7813 57.75 41.3708 57.75 32.55V25.2C57.75 16.3792 57.75 11.9688 56.0333 8.59966C54.5234 5.63609 52.1139 3.22665 49.1502 1.71665C45.7813 0 41.3708 0 32.55 0H25.2C16.3792 0 11.9688 0 8.59966 1.71665C5.63609 3.22665 3.22665 5.63609 1.71665 8.59966ZM32.55 5.25H25.2C20.703 5.25 17.6459 5.2541 15.283 5.44714C12.9813 5.63519 11.8042 5.97605 10.9831 6.39442C9.0074 7.40111 7.40111 9.0074 6.39442 10.9831C5.97605 11.8042 5.63519 12.9813 5.44714 15.283C5.2541 17.6459 5.25 20.703 5.25 25.2V32.55C5.25 37.0471 5.2541 40.104 5.44714 42.467C5.63519 44.7689 5.97605 45.9459 6.39442 46.767C7.40111 48.7426 9.0074 50.3488 10.9831 51.3555C11.8042 51.7739 12.9813 52.1149 15.283 52.3029C17.6459 52.4958 20.703 52.5 25.2 52.5H32.55C37.0471 52.5 40.104 52.4958 42.467 52.3029C44.7689 52.1149 45.9459 51.7739 46.767 51.3555C48.7426 50.3488 50.3488 48.7426 51.3555 46.767C51.7739 45.9459 52.1149 44.7689 52.3029 42.467C52.4958 40.104 52.5 37.0471 52.5 32.55V25.2C52.5 20.703 52.4958 17.6459 52.3029 15.283C52.1149 12.9813 51.7739 11.8042 51.3555 10.9831C50.3488 9.0074 48.7426 7.40111 46.767 6.39442C45.9459 5.97605 44.7689 5.63519 42.467 5.44714C40.104 5.2541 37.0471 5.25 32.55 5.25Z" fill="#FFF5F5"/>
</svg>
