<svg width="63" height="40" viewBox="0 0 63 40" fill="none" xmlns="http://www.w3.org/2000/svg">
<path d="M18.659 0C20.5471 0 22.2686 0.166437 23.8236 0.499942C25.3785 0.833132 26.7113 1.37973 27.8218 2.13784C28.9324 2.89689 29.7932 3.90592 30.4041 5.16492C31.015 6.42391 31.3205 7.97859 31.3205 9.82958C31.3205 11.829 30.8669 13.495 29.96 14.8274C29.0525 16.1602 27.7109 17.2521 25.934 18.1038C28.3773 18.8074 30.2005 20.039 31.404 21.7967C32.6063 23.5556 33.2093 25.6755 33.2093 28.1553C33.2093 30.1545 32.8206 31.8857 32.0427 33.3483C31.2656 34.8113 30.2191 36.005 28.9056 36.9292C27.5911 37.8554 26.0916 38.5397 24.4073 38.9848C22.7126 39.4299 20.9673 39.6537 19.215 39.6505H0V0H18.659ZM17.5484 16.0495C19.1034 16.0495 20.3804 15.6795 21.3803 14.9387C22.3798 14.1986 22.8795 12.995 22.8795 11.3291C22.8795 10.4039 22.713 9.64454 22.3798 9.05224C22.0466 8.46025 21.6025 7.99656 21.0471 7.664C20.4917 7.33049 19.853 7.10007 19.1312 6.96956C18.3887 6.83845 17.636 6.77346 16.882 6.77539H8.71873V16.0499L17.5484 16.0495ZM18.048 32.8755C18.8991 32.8755 19.714 32.7919 20.4913 32.6255C21.2687 32.4587 21.9533 32.181 22.5463 31.7921C23.1379 31.404 23.6101 30.876 23.9622 30.2093C24.3137 29.5433 24.4896 28.6918 24.4896 27.6548C24.4896 25.6194 23.9153 24.1662 22.7682 23.2959C21.6201 22.4259 20.1024 21.9905 18.2145 21.9905H8.71873V32.8748L18.048 32.8755ZM44.1812 32.0427C45.3658 33.1913 47.069 33.7641 49.2904 33.7641C50.8816 33.7641 52.2519 33.3669 53.3993 32.5703C54.547 31.7753 55.2506 30.9324 55.5097 30.0435H62.4512C61.341 33.4864 59.6372 35.9489 57.3424 37.4292C55.0463 38.9104 52.2695 39.6505 49.012 39.6505C46.7538 39.6505 44.7171 39.2896 42.9033 38.5674C41.0889 37.8459 39.5522 36.8183 38.2945 35.4855C37.0355 34.1531 36.0636 32.5621 35.3787 30.7102C34.6934 28.8595 34.3517 26.8229 34.3517 24.6015C34.3517 22.4549 34.7025 20.4557 35.4067 18.6044C36.1093 16.7537 37.1086 15.1524 38.4057 13.8004C39.7007 12.4497 41.2468 11.3852 43.0426 10.6075C44.8378 9.82989 46.8278 9.44154 49.0123 9.44154C51.4559 9.44154 53.5843 9.91342 55.399 10.8575C57.2125 11.8013 58.7029 13.0707 59.8695 14.6613C61.0355 16.2535 61.8772 18.0679 62.3967 20.1033C62.9149 22.1399 63.0993 24.2683 62.9521 26.4897H42.2382C42.3488 29.0436 42.9957 30.8956 44.1812 32.0427ZM53.0941 16.9378C52.1504 15.9017 50.7152 15.3828 48.7907 15.3828C47.5317 15.3828 46.4861 15.5963 45.6533 16.0215C44.8202 16.448 44.1535 16.9744 43.6536 17.6042C43.1542 18.234 42.8018 18.9007 42.5988 19.6034C42.3949 20.3069 42.2745 20.9364 42.2376 21.4915H55.0655C54.6955 19.4921 54.0385 17.9746 53.0941 16.9378ZM40.8909 2.01332H56.9187V6.45733H40.8909V2.01332Z" fill="white"/>
</svg>
